<mxfile host="app.diagrams.net" agent="Mozilla/5.0 (X11; Linux x86_64) AppleWebKit/537.36 (KHTML, like Gecko) Chrome/128.0.0.0 Safari/537.36 OPR/114.0.0.0" version="24.7.17">
  <diagram name="Sida-1" id="RdJLS9GGSDhxWauPwOrX">
    <mxGraphModel dx="1380" dy="763" grid="1" gridSize="10" guides="1" tooltips="1" connect="1" arrows="1" fold="1" page="1" pageScale="1" pageWidth="827" pageHeight="1169" math="0" shadow="0">
      <root>
        <mxCell id="0" />
        <mxCell id="1" parent="0" />
        <mxCell id="T-CoUlsQ0zNCIP5Rp3Ct-22" value="Federation&lt;div&gt;SSO&lt;/div&gt;" style="rounded=0;whiteSpace=wrap;html=1;fillColor=#dae8fc;strokeColor=#6c8ebf;" parent="1" vertex="1">
          <mxGeometry x="120" y="200" width="580" height="230" as="geometry" />
        </mxCell>
        <mxCell id="T-CoUlsQ0zNCIP5Rp3Ct-1" value="AD" style="points=[[0.5,0,0],[0.765,0.48,0],[0.99,0.98,0],[0.5,1,0],[0.01,0.98,0],[0.235,0.48,0]];verticalLabelPosition=bottom;sketch=0;html=1;verticalAlign=top;aspect=fixed;align=center;pointerEvents=1;shape=mxgraph.cisco19.ldap;fillColor=#005073;strokeColor=none;" parent="1" vertex="1">
          <mxGeometry x="300" y="90" width="50" height="42.5" as="geometry" />
        </mxCell>
        <mxCell id="T-CoUlsQ0zNCIP5Rp3Ct-2" value="KOLL" style="points=[[0.5,0,0],[0.765,0.48,0],[0.99,0.98,0],[0.5,1,0],[0.01,0.98,0],[0.235,0.48,0]];verticalLabelPosition=bottom;sketch=0;html=1;verticalAlign=top;aspect=fixed;align=center;pointerEvents=1;shape=mxgraph.cisco19.ldap;fillColor=#005073;strokeColor=none;" parent="1" vertex="1">
          <mxGeometry x="480" y="90" width="50" height="42.5" as="geometry" />
        </mxCell>
        <mxCell id="T-CoUlsQ0zNCIP5Rp3Ct-14" style="edgeStyle=orthogonalEdgeStyle;rounded=0;orthogonalLoop=1;jettySize=auto;html=1;startArrow=classic;startFill=1;" parent="1" source="T-CoUlsQ0zNCIP5Rp3Ct-3" target="T-CoUlsQ0zNCIP5Rp3Ct-12" edge="1">
          <mxGeometry relative="1" as="geometry" />
        </mxCell>
        <mxCell id="T-CoUlsQ0zNCIP5Rp3Ct-3" value="&lt;div&gt;&lt;br&gt;&lt;/div&gt;&lt;div&gt;&lt;br&gt;&lt;/div&gt;&lt;div&gt;&lt;br&gt;&lt;/div&gt;Identity&lt;div&gt;Provider&lt;/div&gt;" style="whiteSpace=wrap;html=1;aspect=fixed;" parent="1" vertex="1">
          <mxGeometry x="374" y="200" width="80" height="80" as="geometry" />
        </mxCell>
        <mxCell id="T-CoUlsQ0zNCIP5Rp3Ct-4" value="" style="html=1;verticalLabelPosition=bottom;align=center;labelBackgroundColor=#ffffff;verticalAlign=top;strokeWidth=2;strokeColor=#0080F0;shadow=0;dashed=0;shape=mxgraph.ios7.icons.locked;" parent="1" vertex="1">
          <mxGeometry x="380" y="210" width="24" height="30" as="geometry" />
        </mxCell>
        <mxCell id="T-CoUlsQ0zNCIP5Rp3Ct-5" value="" style="sketch=0;outlineConnect=0;fontColor=#232F3E;gradientColor=none;fillColor=#232F3D;strokeColor=none;dashed=0;verticalLabelPosition=bottom;verticalAlign=top;align=center;html=1;fontSize=12;fontStyle=0;aspect=fixed;pointerEvents=1;shape=mxgraph.aws4.authenticated_user;" parent="1" vertex="1">
          <mxGeometry x="414" y="211" width="28" height="28" as="geometry" />
        </mxCell>
        <mxCell id="T-CoUlsQ0zNCIP5Rp3Ct-6" style="rounded=0;orthogonalLoop=1;jettySize=auto;html=1;entryX=0.01;entryY=0.98;entryDx=0;entryDy=0;entryPerimeter=0;" parent="1" source="T-CoUlsQ0zNCIP5Rp3Ct-3" target="T-CoUlsQ0zNCIP5Rp3Ct-2" edge="1">
          <mxGeometry relative="1" as="geometry" />
        </mxCell>
        <mxCell id="T-CoUlsQ0zNCIP5Rp3Ct-7" style="rounded=0;orthogonalLoop=1;jettySize=auto;html=1;entryX=0.99;entryY=0.98;entryDx=0;entryDy=0;entryPerimeter=0;" parent="1" source="T-CoUlsQ0zNCIP5Rp3Ct-3" target="T-CoUlsQ0zNCIP5Rp3Ct-1" edge="1">
          <mxGeometry relative="1" as="geometry" />
        </mxCell>
        <mxCell id="T-CoUlsQ0zNCIP5Rp3Ct-8" value="Identitetskällor" style="text;html=1;align=center;verticalAlign=middle;resizable=0;points=[];autosize=1;strokeColor=none;fillColor=none;" parent="1" vertex="1">
          <mxGeometry x="364" y="102.5" width="100" height="30" as="geometry" />
        </mxCell>
        <mxCell id="T-CoUlsQ0zNCIP5Rp3Ct-10" value="Service&lt;div&gt;Provider 1&lt;/div&gt;" style="rounded=0;whiteSpace=wrap;html=1;" parent="1" vertex="1">
          <mxGeometry x="130" y="400" width="110" height="30" as="geometry" />
        </mxCell>
        <mxCell id="T-CoUlsQ0zNCIP5Rp3Ct-11" value="Domänapplikation 1" style="rounded=0;whiteSpace=wrap;html=1;" parent="1" vertex="1">
          <mxGeometry x="130" y="430" width="110" height="150" as="geometry" />
        </mxCell>
        <mxCell id="T-CoUlsQ0zNCIP5Rp3Ct-12" value="Service&lt;div&gt;Provider 2&lt;/div&gt;" style="rounded=0;whiteSpace=wrap;html=1;" parent="1" vertex="1">
          <mxGeometry x="577" y="400" width="110" height="30" as="geometry" />
        </mxCell>
        <mxCell id="T-CoUlsQ0zNCIP5Rp3Ct-13" value="Domänapplikation 2" style="rounded=0;whiteSpace=wrap;html=1;" parent="1" vertex="1">
          <mxGeometry x="577" y="430" width="110" height="150" as="geometry" />
        </mxCell>
        <mxCell id="T-CoUlsQ0zNCIP5Rp3Ct-15" value="Metadata-&lt;div&gt;utbyte&lt;/div&gt;" style="image;aspect=fixed;perimeter=ellipsePerimeter;html=1;align=center;shadow=0;dashed=0;fontColor=#4277BB;labelBackgroundColor=default;fontSize=12;spacingTop=3;image=img/lib/ibm/blockchain/smart_contract.svg;" parent="1" vertex="1">
          <mxGeometry x="602" y="210" width="60" height="60" as="geometry" />
        </mxCell>
        <mxCell id="T-CoUlsQ0zNCIP5Rp3Ct-16" style="edgeStyle=orthogonalEdgeStyle;rounded=0;orthogonalLoop=1;jettySize=auto;html=1;startArrow=classic;startFill=1;exitX=0;exitY=0.5;exitDx=0;exitDy=0;" parent="1" source="T-CoUlsQ0zNCIP5Rp3Ct-3" edge="1">
          <mxGeometry relative="1" as="geometry">
            <mxPoint x="40" y="240" as="sourcePoint" />
            <mxPoint x="181" y="400" as="targetPoint" />
          </mxGeometry>
        </mxCell>
        <mxCell id="T-CoUlsQ0zNCIP5Rp3Ct-17" value="Metadata-&lt;div&gt;utbyte&lt;/div&gt;" style="image;aspect=fixed;perimeter=ellipsePerimeter;html=1;align=center;shadow=0;dashed=0;fontColor=#4277BB;labelBackgroundColor=default;fontSize=12;spacingTop=3;image=img/lib/ibm/blockchain/smart_contract.svg;" parent="1" vertex="1">
          <mxGeometry x="155" y="210" width="60" height="60" as="geometry" />
        </mxCell>
        <mxCell id="trAEXEHgNY-A63-KypLn-1" value="login" style="edgeStyle=orthogonalEdgeStyle;rounded=0;orthogonalLoop=1;jettySize=auto;html=1;entryX=0;entryY=1;entryDx=0;entryDy=0;curved=1;" parent="1" source="T-CoUlsQ0zNCIP5Rp3Ct-19" target="T-CoUlsQ0zNCIP5Rp3Ct-3" edge="1">
          <mxGeometry relative="1" as="geometry">
            <Array as="points">
              <mxPoint x="240" y="505" />
              <mxPoint x="240" y="280" />
            </Array>
          </mxGeometry>
        </mxCell>
        <mxCell id="trAEXEHgNY-A63-KypLn-3" value="studsad inloggning&amp;nbsp;&lt;div&gt;vid inloggat läge&lt;/div&gt;&lt;div&gt;SSO&lt;/div&gt;" style="edgeStyle=orthogonalEdgeStyle;rounded=0;orthogonalLoop=1;jettySize=auto;html=1;curved=1;entryX=0.25;entryY=0;entryDx=0;entryDy=0;" parent="1" target="T-CoUlsQ0zNCIP5Rp3Ct-12" edge="1">
          <mxGeometry x="0.7647" relative="1" as="geometry">
            <mxPoint x="427.5" y="490" as="sourcePoint" />
            <mxPoint x="600" y="390" as="targetPoint" />
            <Array as="points">
              <mxPoint x="580" y="490" />
              <mxPoint x="580" y="360" />
              <mxPoint x="440" y="360" />
              <mxPoint x="440" y="250" />
              <mxPoint x="550" y="250" />
              <mxPoint x="550" y="330" />
              <mxPoint x="605" y="330" />
            </Array>
            <mxPoint y="1" as="offset" />
          </mxGeometry>
        </mxCell>
        <mxCell id="T-CoUlsQ0zNCIP5Rp3Ct-19" value="Användare" style="verticalLabelPosition=bottom;html=1;verticalAlign=top;align=center;strokeColor=none;fillColor=#00BEF2;shape=mxgraph.azure.user;" parent="1" vertex="1">
          <mxGeometry x="380" y="480" width="47.5" height="50" as="geometry" />
        </mxCell>
        <mxCell id="T-CoUlsQ0zNCIP5Rp3Ct-20" value="SITHS-&lt;div&gt;kort&lt;/div&gt;" style="verticalLabelPosition=bottom;html=1;verticalAlign=top;align=center;strokeColor=none;fillColor=#00BEF2;shape=mxgraph.azure.certificate;pointerEvents=1;" parent="1" vertex="1">
          <mxGeometry x="440" y="500" width="40" height="30" as="geometry" />
        </mxCell>
        <mxCell id="trAEXEHgNY-A63-KypLn-2" value="inloggningsdialog&lt;div&gt;SITHS-kort-verifikation&lt;/div&gt;" style="edgeStyle=orthogonalEdgeStyle;rounded=0;orthogonalLoop=1;jettySize=auto;html=1;entryX=0.375;entryY=0.988;entryDx=0;entryDy=0;entryPerimeter=0;" parent="1" source="T-CoUlsQ0zNCIP5Rp3Ct-19" target="T-CoUlsQ0zNCIP5Rp3Ct-3" edge="1">
          <mxGeometry relative="1" as="geometry" />
        </mxCell>
        <mxCell id="KY97BO0mYcNuNlOp9AN--1" value="HSAWS" style="rounded=0;whiteSpace=wrap;html=1;" vertex="1" parent="1">
          <mxGeometry x="425" y="160" width="70" height="31.25" as="geometry" />
        </mxCell>
        <mxCell id="KY97BO0mYcNuNlOp9AN--14" value="SAML2" style="edgeStyle=orthogonalEdgeStyle;rounded=0;orthogonalLoop=1;jettySize=auto;html=1;" edge="1" parent="1" source="KY97BO0mYcNuNlOp9AN--3" target="KY97BO0mYcNuNlOp9AN--9">
          <mxGeometry relative="1" as="geometry" />
        </mxCell>
        <mxCell id="KY97BO0mYcNuNlOp9AN--3" value="" style="ellipse;whiteSpace=wrap;html=1;" vertex="1" parent="1">
          <mxGeometry x="204.5" y="850" width="120" height="240" as="geometry" />
        </mxCell>
        <mxCell id="KY97BO0mYcNuNlOp9AN--13" value="Oauth2&lt;br&gt;Oidc" style="edgeStyle=orthogonalEdgeStyle;rounded=0;orthogonalLoop=1;jettySize=auto;html=1;entryX=0.5;entryY=1;entryDx=0;entryDy=0;" edge="1" parent="1" source="KY97BO0mYcNuNlOp9AN--4" target="KY97BO0mYcNuNlOp9AN--10">
          <mxGeometry relative="1" as="geometry" />
        </mxCell>
        <mxCell id="KY97BO0mYcNuNlOp9AN--4" value="" style="ellipse;whiteSpace=wrap;html=1;" vertex="1" parent="1">
          <mxGeometry x="459.5" y="850" width="120" height="240" as="geometry" />
        </mxCell>
        <mxCell id="KY97BO0mYcNuNlOp9AN--5" value="cosmic" style="rounded=0;whiteSpace=wrap;html=1;" vertex="1" parent="1">
          <mxGeometry x="214.5" y="900" width="100" height="40" as="geometry" />
        </mxCell>
        <mxCell id="KY97BO0mYcNuNlOp9AN--6" value="vårdpersonal" style="shape=umlActor;verticalLabelPosition=bottom;verticalAlign=top;html=1;outlineConnect=0;" vertex="1" parent="1">
          <mxGeometry x="249.5" y="970" width="30" height="60" as="geometry" />
        </mxCell>
        <mxCell id="KY97BO0mYcNuNlOp9AN--7" value="administrativt&lt;div&gt;system&lt;/div&gt;&lt;div&gt;ekonomistöd&lt;/div&gt;" style="rounded=0;whiteSpace=wrap;html=1;" vertex="1" parent="1">
          <mxGeometry x="472.63" y="900" width="93.75" height="40" as="geometry" />
        </mxCell>
        <mxCell id="KY97BO0mYcNuNlOp9AN--8" value="administrativ&lt;div&gt;&amp;nbsp;personal&lt;/div&gt;" style="shape=umlActor;verticalLabelPosition=bottom;verticalAlign=top;html=1;outlineConnect=0;" vertex="1" parent="1">
          <mxGeometry x="504.5" y="970" width="30" height="60" as="geometry" />
        </mxCell>
        <mxCell id="KY97BO0mYcNuNlOp9AN--9" value="phenixID" style="rounded=0;whiteSpace=wrap;html=1;" vertex="1" parent="1">
          <mxGeometry x="204.5" y="730" width="120" height="60" as="geometry" />
        </mxCell>
        <mxCell id="KY97BO0mYcNuNlOp9AN--10" value="hasses" style="rounded=0;whiteSpace=wrap;html=1;" vertex="1" parent="1">
          <mxGeometry x="459.5" y="730" width="120" height="60" as="geometry" />
        </mxCell>
      </root>
    </mxGraphModel>
  </diagram>
</mxfile>
